<svg width="640" height="460" viewBox="0 0 640 460" fill="none" xmlns="http://www.w3.org/2000/svg">
  <rect width="640" height="460" rx="24" fill="#E8F9EE"/>
  <rect x="36" y="36" width="568" height="388" rx="18" fill="#0F172A"/>
  <rect x="60" y="60" width="180" height="12" rx="6" fill="#22C55E"/>
  <rect x="60" y="88" width="120" height="8" rx="4" fill="#94A3B8"/>
  <rect x="60" y="132" width="218" height="178" rx="14" fill="#111E3B"/>
  <rect x="292" y="132" width="288" height="92" rx="14" fill="#12284C"/>
  <rect x="292" y="242" width="288" height="68" rx="14" fill="#12284C"/>
  <rect x="78" y="154" width="60" height="60" rx="12" fill="#22C55E"/>
  <rect x="152" y="154" width="110" height="10" rx="5" fill="#E2E8F0"/>
  <rect x="152" y="176" width="86" height="8" rx="4" fill="#94A3B8"/>
  <rect x="152" y="198" width="98" height="8" rx="4" fill="#94A3B8"/>
  <path d="M320 160L350 190L382 174L420 210" stroke="#22C55E" stroke-width="8" stroke-linecap="round" stroke-linejoin="round"/>
  <rect x="318" y="260" width="110" height="10" rx="5" fill="#E2E8F0"/>
  <rect x="318" y="282" width="84" height="8" rx="4" fill="#94A3B8"/>
  <rect x="60" y="332" width="520" height="58" rx="14" fill="#0B1228"/>
  <rect x="78" y="350" width="160" height="10" rx="5" fill="#E2E8F0"/>
  <rect x="448" y="344" width="108" height="22" rx="11" fill="#22C55E"/>
</svg>
